<?xml version="1.0" standalone="no"?><!DOCTYPE svg PUBLIC "-//W3C//DTD SVG 1.1//EN" "http://www.w3.org/Graphics/SVG/1.1/DTD/svg11.dtd"><svg class="icon" width="200px" height="200.00px" viewBox="0 0 1024 1024" version="1.1" xmlns="http://www.w3.org/2000/svg"><path fill="#333333" d="M953.395454 402.915559c-8.676613-24.556279-30.668487-42.291199-57.407478-46.220694l-222.3716-32.523741L576.974315 126.46632c-11.676947-24.065092-37.161365-39.672558-64.992223-39.672558-27.721365 0-53.151547 15.606443-64.828494 39.617299l-96.643084 197.759039-222.589564 32.633235c-26.629497 3.928472-48.566112 21.609157-57.297984 46.27493-8.622378 24.938995-2.182712 51.950186 16.806781 70.613244l163.271574 160.433946-37.925774 222.535329c-4.638647 26.356274 6.65763 52.440349 29.631878 68.102051 12.059664 8.130168 26.303063 12.441357 41.200354 12.441357 12.059664 0 23.955598-2.891863 34.651194-8.458649l193.666838-102.917998 194.431248 103.192244c23.355941 12.059664 53.260018 10.423397 75.578326-4.311189 22.646789-15.497972 33.887808-41.582047 29.30442-67.940368l-37.871539-222.533282 163.381068-160.653957C955.577143 454.91998 961.962573 427.963025 953.395454 402.915559zM896.587634 432.873872 722.675722 603.894943c-6.712889 6.603395-9.713222 15.989159-8.131191 25.211195l40.381709 237.377362c0.709151 4.202719-1.200338 8.18645-5.02034 10.80509-4.637624 3.166109-12.659321 3.329838-17.080004 1.037632L525.352611 768.203126c-8.404414-4.474918-18.444071-4.365424-26.848485 0L291.576263 878.160447c-5.129834 2.620687-12.605086 2.346441-17.080004-0.709151-1.963725-1.308809-6.438643-5.074575-5.402033-11.076266l40.435944-237.377362c1.582031-9.224082-1.419326-18.609847-8.131191-25.213241L127.486044 432.873872c-3.110851-3.055592-4.201695-7.148817-2.892887-10.859325 1.582031-4.529153 6.056949-7.80271 11.67797-8.676613l237.431597-34.814923c9.331529-1.364067 17.407462-7.258311 21.554922-15.715937L498.558361 151.45955c2.182712-4.474918 7.584746-7.476275 13.423731-7.476275 5.948479 0 11.405771 3.001357 13.58746 7.53051l103.299691 211.292264c4.14746 8.458649 12.223393 14.351869 21.554922 15.715937l237.213633 34.706453c5.675256 0.87288 10.258645 4.201695 11.787464 8.512884C900.736117 425.726078 899.698484 429.818279 896.587634 432.873872z" /></svg>