<?xml version="1.0" standalone="no"?>
<!DOCTYPE svg PUBLIC "-//W3C//DTD SVG 20010904//EN"
 "http://www.w3.org/TR/2001/REC-SVG-20010904/DTD/svg10.dtd">
<svg version="1.0" xmlns="http://www.w3.org/2000/svg"
 width="44.000000pt" height="44.000000pt" viewBox="0 0 44.000000 44.000000"
 preserveAspectRatio="xMidYMid meet">
<metadata>
Created by potrace 1.15, written by Peter Selinger 2001-2017
</metadata>
<g transform="translate(0.000000,44.000000) scale(0.100000,-0.100000)"
fill="#000000" stroke="none">
<path d="M0 405 c0 -8 6 -15 14 -15 21 0 23 -6 46 -136 31 -181 13 -165 187
-162 187 4 194 21 11 28 -116 4 -133 7 -136 22 -3 16 9 18 136 18 100 0 142 4
149 13 18 22 35 158 22 173 -9 11 -49 14 -180 14 -156 0 -169 1 -169 18 0 26
-20 42 -52 42 -18 0 -28 -5 -28 -15z m394 -83 c2 -4 -1 -35 -7 -67 l-12 -60
-131 -3 -132 -3 -11 64 c-6 35 -11 67 -11 70 0 10 298 9 304 -1z"/>
</g>
</svg>
