<?xml version="1.0" standalone="no"?>
<!DOCTYPE svg PUBLIC "-//W3C//DTD SVG 20010904//EN"
 "http://www.w3.org/TR/2001/REC-SVG-20010904/DTD/svg10.dtd">
<svg version="1.0" xmlns="http://www.w3.org/2000/svg"
 width="44.000000pt" height="44.000000pt" viewBox="0 0 44.000000 44.000000"
 preserveAspectRatio="xMidYMid meet">
<metadata>
Created by potrace 1.15, written by Peter Selinger 2001-2017
</metadata>
<g transform="translate(0.000000,44.000000) scale(0.100000,-0.100000)"
fill="#000000" stroke="none">
<path d="M130 412 c-19 -10 -48 -36 -65 -56 -28 -35 -30 -44 -30 -116 0 -73 2
-80 33 -119 27 -33 31 -44 22 -60 -5 -11 -10 -27 -10 -35 0 -24 29 -19 39 6 7
20 15 21 101 22 87 1 93 0 101 -21 10 -26 39 -31 39 -7 0 8 -5 24 -10 35 -9
16 -5 27 22 60 28 35 33 49 36 107 4 79 -14 119 -72 166 -31 26 -47 31 -104
34 -52 2 -75 -1 -102 -16z m168 -42 c130 -79 74 -280 -78 -280 -152 0 -208
201 -78 280 43 26 113 26 156 0z"/>
</g>
</svg>
